<?xml version="1.0" encoding="utf-8"?>
<!-- Generator: Adobe Illustrator 26.3.1, SVG Export Plug-In . SVG Version: 6.00 Build 0)  -->
<svg version="1.1" id="Layer_1" xmlns="http://www.w3.org/2000/svg" xmlns:xlink="http://www.w3.org/1999/xlink" x="0px" y="0px"
	 viewBox="0 0 155.8 35.5" style="enable-background:new 0 0 155.8 35.5;" xml:space="preserve">
<style type="text/css">
	.st0{fill:url(#SVGID_1_);}
	.st1{fill:url(#SVGID_00000154419800822436223980000017774069667477067195_);}
	.st2{fill:url(#SVGID_00000151535561337410633370000004587149923080847501_);}
	.st3{fill:none;}
	.st4{font-family:'ClearSans-Bold';}
	.st5{font-size:31px;}
	.st6{fill:url(#SVGID_00000128445681213525509720000001326298001518178972_);}
	.st7{fill:url(#SVGID_00000150096004969218347480000001861737681315887797_);}
	.st8{fill:url(#SVGID_00000088112514249710043480000010623397667837729422_);}
	.st9{fill:url(#SVGID_00000003083112173153771930000008660896767870252476_);}
	.st10{fill:url(#SVGID_00000061443965508637579070000005255868317702192013_);}
	.st11{fill:url(#SVGID_00000001636154536992991010000001438072158550246830_);}
	.st12{fill:url(#SVGID_00000138574014896435198770000016535562214351798954_);}
	.st13{fill-rule:evenodd;clip-rule:evenodd;fill:url(#SVGID_00000061458176108649499450000011741615575003145661_);}
	.st14{fill-rule:evenodd;clip-rule:evenodd;fill:url(#SVGID_00000109716517980066147730000015296339104563123372_);}
	.st15{fill-rule:evenodd;clip-rule:evenodd;fill:url(#SVGID_00000142857122856881661340000008259528256110225558_);}
</style>
<linearGradient id="SVGID_1_" gradientUnits="userSpaceOnUse" x1="28.1102" y1="114.1175" x2="28.4202" y2="114.1274" gradientTransform="matrix(1 0 0 1 0 -110.6923)">
	<stop  offset="0" style="stop-color:#26A4FF"/>
	<stop  offset="1" style="stop-color:#0D9AFF"/>
</linearGradient>
<path class="st0" d="M28.3,3.6c0.1,0,0.2-0.1,0.2-0.2c0-0.1-0.1-0.2-0.2-0.2c-0.1,0-0.2,0.1-0.2,0.2S28.2,3.6,28.3,3.6
	C28.3,3.6,28.3,3.6,28.3,3.6z"/>
<linearGradient id="SVGID_00000163063692172180321120000011431604618566361218_" gradientUnits="userSpaceOnUse" x1="3.1401" y1="126.8278" x2="3.4501" y2="126.8378" gradientTransform="matrix(1 0 0 1 0 -110.6923)">
	<stop  offset="0" style="stop-color:#26A4FF"/>
	<stop  offset="1" style="stop-color:#0D9AFF"/>
</linearGradient>
<path style="fill:url(#SVGID_00000163063692172180321120000011431604618566361218_);" d="M3.3,16.3c0.1,0,0.2-0.1,0.2-0.2
	c0-0.1-0.1-0.2-0.2-0.2c0,0,0,0,0,0c-0.1,0-0.2,0.1-0.2,0.2C3.1,16.2,3.2,16.3,3.3,16.3z"/>
<linearGradient id="SVGID_00000128476156186475752940000015147398322636069770_" gradientUnits="userSpaceOnUse" x1="9.0506" y1="113.5726" x2="9.5406" y2="113.5826" gradientTransform="matrix(1 0 0 1 0 -110.6923)">
	<stop  offset="0" style="stop-color:#26A4FF"/>
	<stop  offset="1" style="stop-color:#0D9AFF"/>
</linearGradient>
<path style="fill:url(#SVGID_00000128476156186475752940000015147398322636069770_);" d="M9.3,3.2c0.1,0,0.2-0.1,0.2-0.2
	c0-0.1-0.1-0.3-0.2-0.3C9.2,2.6,9.1,2.7,9,2.8c0,0,0,0.1,0,0.1C9,3,9.1,3.2,9.3,3.2z"/>
<text transform="matrix(1 0 0 1 29.7 25.97)" class="st3 st4 st5">MASK.IO</text>
<linearGradient id="SVGID_00000178889206683655272140000011827844968108812960_" gradientUnits="userSpaceOnUse" x1="31.97" y1="20.2323" x2="154.53" y2="20.2323" gradientTransform="matrix(1 0 0 -1 0 35.7323)">
	<stop  offset="0" style="stop-color:#D8E9A8"/>
	<stop  offset="1" style="stop-color:#1E5128"/>
</linearGradient>
<path style="fill:url(#SVGID_00000178889206683655272140000011827844968108812960_);" d="M48.5,26V11.9l-5,8.7H41l-5-8.7V26h-4V5
	h4.9l5.4,10l5.5-10h4.8v21H48.5z"/>
<linearGradient id="SVGID_00000126294382380778365400000011756257770753825669_" gradientUnits="userSpaceOnUse" x1="31.97" y1="20.2323" x2="154.53" y2="20.2323" gradientTransform="matrix(1 0 0 -1 0 35.7323)">
	<stop  offset="0" style="stop-color:#D8E9A8"/>
	<stop  offset="1" style="stop-color:#1E5128"/>
</linearGradient>
<path style="fill:url(#SVGID_00000126294382380778365400000011756257770753825669_);" d="M55.3,26l6.9-21h5.6l6.9,21h-4.4L69,21.7
	h-8.1L59.6,26H55.3z M62.2,18h5.7L65,9.3L62.2,18z"/>
<linearGradient id="SVGID_00000051381500858817677760000015998796687598271130_" gradientUnits="userSpaceOnUse" x1="31.97" y1="20.2601" x2="154.53" y2="20.2601" gradientTransform="matrix(1 0 0 -1 0 35.7323)">
	<stop  offset="0" style="stop-color:#D8E9A8"/>
	<stop  offset="1" style="stop-color:#1E5128"/>
</linearGradient>
<path style="fill:url(#SVGID_00000051381500858817677760000015998796687598271130_);" d="M92.5,19.9c0.1,1.8-0.7,3.6-2.1,4.8
	c-1.4,1.1-3.4,1.7-6.1,1.7c-1.7,0-3.3-0.3-4.8-0.9c-1.4-0.6-2.6-1.7-3.3-3l3.3-2.5c0.4,0.6,0.9,1.1,1.4,1.5c0.5,0.4,1,0.6,1.5,0.8
	c0.7,0.2,1.4,0.3,2.1,0.3c0.9,0.1,1.9-0.2,2.7-0.6c0.6-0.4,1-1.1,1-1.8c0-0.4-0.1-0.9-0.4-1.2c-0.3-0.3-0.6-0.6-1-0.8
	c-0.8-0.3-1.6-0.6-2.4-0.8c-1.1-0.3-2.1-0.6-3.1-0.9c-0.9-0.3-1.7-0.7-2.5-1.2c-0.7-0.5-1.2-1.1-1.7-1.8c-0.4-0.8-0.6-1.8-0.6-2.7
	c-0.1-1.8,0.6-3.5,2-4.7c1.7-1.2,3.7-1.8,5.8-1.7c3.7,0,6.2,1.3,7.7,3.8l-3.2,2.5c-0.5-0.8-1.1-1.4-1.9-1.9
	c-0.8-0.4-1.7-0.6-2.6-0.6c-0.8,0-1.7,0.2-2.4,0.5c-0.6,0.3-1,1-0.9,1.7c0,0.7,0.4,1.3,1,1.6c1.1,0.5,2.2,0.9,3.4,1.1
	c0.9,0.2,1.8,0.5,2.6,0.8c0.8,0.2,1.6,0.6,2.3,1.1c0.7,0.5,1.2,1.1,1.6,1.9C92.3,17.9,92.5,18.9,92.5,19.9z"/>
<linearGradient id="SVGID_00000173133269504429905540000013701737007236970157_" gradientUnits="userSpaceOnUse" x1="31.97" y1="20.2323" x2="154.53" y2="20.2323" gradientTransform="matrix(1 0 0 -1 0 35.7323)">
	<stop  offset="0" style="stop-color:#D8E9A8"/>
	<stop  offset="1" style="stop-color:#1E5128"/>
</linearGradient>
<path style="fill:url(#SVGID_00000173133269504429905540000013701737007236970157_);" d="M107.4,26l-5.8-8.8l-1.3,1.5V26H96V5h4.3
	v8.2l6.9-8.2h5l-7.8,9l8.3,12H107.4z"/>
<linearGradient id="SVGID_00000108987388594634725980000017521601955004597162_" gradientUnits="userSpaceOnUse" x1="31.97" y1="11.9566" x2="154.53" y2="11.9566" gradientTransform="matrix(1 0 0 -1 0 35.7323)">
	<stop  offset="0" style="stop-color:#D8E9A8"/>
	<stop  offset="1" style="stop-color:#1E5128"/>
</linearGradient>
<path style="fill:url(#SVGID_00000108987388594634725980000017521601955004597162_);" d="M120,23.8c0.1,0.7-0.1,1.3-0.6,1.9
	c-0.5,0.4-1.2,0.6-1.9,0.6c-0.7,0.1-1.4-0.1-1.9-0.6c-0.4-0.5-0.6-1.2-0.5-1.8c-0.1-0.7,0.1-1.3,0.5-1.8c0.5-0.4,1.2-0.7,1.9-0.6
	c0.7-0.1,1.4,0.1,1.9,0.6C119.9,22.5,120.1,23.1,120,23.8z"/>
<linearGradient id="SVGID_00000061437475789073068350000006546334397065254038_" gradientUnits="userSpaceOnUse" x1="31.97" y1="20.2323" x2="154.53" y2="20.2323" gradientTransform="matrix(1 0 0 -1 0 35.7323)">
	<stop  offset="0" style="stop-color:#D8E9A8"/>
	<stop  offset="1" style="stop-color:#1E5128"/>
</linearGradient>
<path style="fill:url(#SVGID_00000061437475789073068350000006546334397065254038_);" d="M133.6,26h-10.1v-3.3h2.9V8.3h-2.9V5h10.1
	v3.3h-2.9v14.4h2.9V26z"/>
<linearGradient id="SVGID_00000157306888677124734210000017239988317470641848_" gradientUnits="userSpaceOnUse" x1="31.97" y1="20.1979" x2="154.53" y2="20.1979" gradientTransform="matrix(1 0 0 -1 0 35.7323)">
	<stop  offset="0" style="stop-color:#D8E9A8"/>
	<stop  offset="1" style="stop-color:#1E5128"/>
</linearGradient>
<path style="fill:url(#SVGID_00000157306888677124734210000017239988317470641848_);" d="M154.5,15.5c0,3.6-0.8,6.4-2.3,8.2
	c-1.7,1.9-4.2,2.9-6.7,2.7c-3.1,0-5.4-1-6.8-2.9c-1.5-1.9-2.2-4.6-2.2-8c0-3.5,0.7-6.2,2.2-8.1s3.7-2.8,6.8-2.8
	c3.1,0,5.4,0.9,6.9,2.8C153.8,9.4,154.5,12.1,154.5,15.5z M150.1,15.5c0.1-1.9-0.2-3.7-1.1-5.4c-1.6-2-4.5-2.3-6.5-0.7
	c-0.2,0.2-0.5,0.4-0.7,0.7c-0.8,1.7-1.2,3.6-1.1,5.4c-0.1,1.9,0.3,3.8,1.1,5.4c1.6,2,4.5,2.3,6.4,0.7c0.3-0.2,0.5-0.4,0.7-0.7
	C149.9,19.2,150.3,17.4,150.1,15.5z"/>
<linearGradient id="SVGID_00000030480235811955797660000005884294082394572479_" gradientUnits="userSpaceOnUse" x1="-3.552913e-03" y1="19.0642" x2="26.8764" y2="19.0642" gradientTransform="matrix(1 0 0 -1 0 35.7323)">
	<stop  offset="0" style="stop-color:#D8E9A8"/>
	<stop  offset="1" style="stop-color:#1E5128"/>
</linearGradient>
<path style="fill-rule:evenodd;clip-rule:evenodd;fill:url(#SVGID_00000030480235811955797660000005884294082394572479_);" d="
	M4.9,10.2H22c0.8,0,1.5,0.7,1.5,1.5v9.9c0,0.8-0.7,1.5-1.5,1.5H5c-0.8,0-1.5-0.7-1.5-1.5l0,0v-9.9C3.4,11,4,10.3,4.8,10.2
	C4.8,10.2,4.8,10.2,4.9,10.2 M0.5,7.5h26c0.2,0,0.4,0.1,0.5,0.3c0,0,0,0.1,0,0.1v17.3c0,0.3-0.3,0.6-0.6,0.6H0.6
	c-0.3,0-0.6-0.3-0.6-0.6V7.9c0-0.2,0.1-0.4,0.4-0.5C0.4,7.5,0.4,7.5,0.5,7.5z"/>
<linearGradient id="SVGID_00000072277117190465191350000010425280030197137315_" gradientUnits="userSpaceOnUse" x1="5.32" y1="18.2073" x2="21.72" y2="18.2073" gradientTransform="matrix(1 0 0 -1 0 35.7323)">
	<stop  offset="0" style="stop-color:#D8E9A8"/>
	<stop  offset="1" style="stop-color:#1E5128"/>
</linearGradient>
<path style="fill-rule:evenodd;clip-rule:evenodd;fill:url(#SVGID_00000072277117190465191350000010425280030197137315_);" d="
	M21.7,21.9L19.4,18c-0.4-0.5-1.1-0.6-1.6-0.2c-0.1,0.1-0.1,0.1-0.2,0.2l-2.3,4L21.7,21.9z M18.5,13.1c0.8,0,1.4,0.6,1.4,1.4
	s-0.6,1.4-1.4,1.4c-0.8,0-1.4-0.6-1.4-1.4C17.2,13.7,17.8,13.1,18.5,13.1C18.5,13.1,18.5,13.1,18.5,13.1z M5.3,21.9l3.5-6.1
	c0.7-0.8,1.8-0.9,2.6-0.3c0.1,0.1,0.2,0.2,0.3,0.3l3.6,6.1H5.3z"/>
<linearGradient id="SVGID_00000021822154918583899600000013894091292280324793_" gradientUnits="userSpaceOnUse" x1="2.73" y1="22.1073" x2="29.77" y2="22.1073" gradientTransform="matrix(1 0 0 -1 0 35.7323)">
	<stop  offset="0" style="stop-color:#D8E9A8"/>
	<stop  offset="1" style="stop-color:#1E5128"/>
</linearGradient>
<path style="fill-rule:evenodd;clip-rule:evenodd;fill:url(#SVGID_00000021822154918583899600000013894091292280324793_);" d="
	M3.3,4.4h26c0.2,0,0.4,0.1,0.5,0.3c0,0,0,0.1,0,0.1v17.3c0,0.3-0.3,0.6-0.6,0.6h-1.7V7.3c0-0.2-0.1-0.4-0.3-0.5c-0.1,0-0.1,0-0.2,0
	H2.7v-2C2.9,4.7,3,4.4,3.3,4.4"/>
</svg>
